<svg width="600" height="374" viewBox="0 0 600 374" fill="none" xmlns="http://www.w3.org/2000/svg">
<g clip-path="url(#clip0_1_295)">
<path d="M56.5853 362.098C59.2404 365.676 62.5317 368.735 66.2947 371.121C67.095 371.628 67.9165 372.107 68.7524 372.55H88.4213C88.1858 372.079 87.957 371.6 87.7354 371.121C81.6369 358.252 79.7245 343.796 82.2671 329.783C84.8097 315.771 91.6794 302.908 101.91 293.002C90.0218 296.675 79.0335 303.834 71.846 313.986C68.3536 318.93 65.87 324.514 64.5371 330.418C63.3493 318.61 65.2371 306.695 70.017 295.832C60.3648 303.683 52.8483 314.436 49.9835 326.539C47.1187 338.649 49.1976 352.088 56.5853 362.098Z" fill="#F0F0F0"/>
<path d="M596.89 200.755H463.166C462.341 200.754 461.551 200.426 460.968 199.843C460.385 199.26 460.057 198.47 460.056 197.645V114.923C460.057 114.098 460.385 113.308 460.968 112.725C461.551 112.142 462.341 111.814 463.166 111.813H596.89C597.715 111.814 598.505 112.142 599.088 112.725C599.671 113.308 599.999 114.098 600 114.923V197.645C599.999 198.47 599.671 199.26 599.088 199.843C598.505 200.426 597.715 200.754 596.89 200.755Z" fill="white"/>
<path d="M596.89 200.755H463.166C462.341 200.754 461.551 200.426 460.968 199.843C460.385 199.26 460.057 198.47 460.056 197.645V114.923C460.057 114.098 460.385 113.308 460.968 112.725C461.551 112.142 462.341 111.814 463.166 111.813H596.89C597.715 111.814 598.505 112.142 599.088 112.725C599.671 113.308 599.999 114.098 600 114.923V197.645C599.999 198.47 599.671 199.26 599.088 199.843C598.505 200.426 597.715 200.754 596.89 200.755ZM463.166 113.057C462.671 113.057 462.197 113.254 461.847 113.604C461.497 113.954 461.301 114.428 461.3 114.923V197.645C461.301 198.14 461.497 198.614 461.847 198.964C462.197 199.314 462.671 199.51 463.166 199.511H596.89C597.385 199.51 597.859 199.314 598.209 198.964C598.559 198.614 598.756 198.14 598.756 197.645V114.923C598.756 114.428 598.559 113.954 598.209 113.604C597.859 113.254 597.385 113.057 596.89 113.057H463.166Z" fill="#3F3D56"/>
<path d="M570.456 139.44H489.6C488.857 139.44 488.146 139.145 487.621 138.62C487.096 138.095 486.801 137.383 486.801 136.641C486.801 135.899 487.096 135.187 487.621 134.662C488.146 134.137 488.857 133.842 489.6 133.842H570.456C571.199 133.842 571.911 134.137 572.435 134.662C572.96 135.187 573.255 135.899 573.255 136.641C573.255 137.383 572.96 138.095 572.435 138.62C571.911 139.145 571.199 139.44 570.456 139.44Z" fill="#CCCCCC"/>
<path d="M570.456 158.721H489.6C488.857 158.721 488.146 158.426 487.621 157.901C487.096 157.376 486.801 156.664 486.801 155.922C486.801 155.18 487.096 154.468 487.621 153.943C488.146 153.418 488.857 153.123 489.6 153.123H570.456C571.199 153.123 571.911 153.418 572.435 153.943C572.96 154.468 573.255 155.18 573.255 155.922C573.255 156.664 572.96 157.376 572.435 157.901C571.911 158.426 571.199 158.721 570.456 158.721Z" fill="#CCCCCC"/>
<path d="M563.253 189.292C568.777 189.292 573.255 184.813 573.255 179.289C573.255 173.765 568.777 169.287 563.253 169.287C557.729 169.287 553.25 173.765 553.25 179.289C553.25 184.813 557.729 189.292 563.253 189.292Z" fill="#F9A826"/>
<path d="M563.527 174.577V173.624H563.81V174.577C564.209 174.594 564.601 174.69 564.963 174.859C565.226 174.983 565.453 175.172 565.621 175.408C565.777 175.627 565.861 175.889 565.86 176.157C565.866 176.353 565.8 176.545 565.675 176.696C565.621 176.765 565.552 176.821 565.473 176.859C565.394 176.897 565.308 176.916 565.22 176.916C565.155 176.917 565.09 176.905 565.03 176.88C564.969 176.855 564.915 176.818 564.869 176.771C564.822 176.725 564.785 176.669 564.76 176.608C564.735 176.546 564.723 176.48 564.725 176.414C564.725 176.321 564.744 176.23 564.781 176.145L564.894 175.906C564.934 175.807 564.953 175.7 564.951 175.593C564.954 175.427 564.901 175.264 564.8 175.132C564.69 174.993 564.542 174.89 564.374 174.834C564.191 174.774 564.002 174.736 563.81 174.721V178.151L563.872 178.188C564.462 178.5 564.997 178.905 565.459 179.386C565.663 179.628 565.825 179.902 565.938 180.198C566.051 180.484 566.109 180.789 566.111 181.097C566.116 181.496 566.012 181.888 565.81 182.232C565.612 182.568 565.323 182.84 564.976 183.016C564.61 183.195 564.215 183.31 563.81 183.354V184.376H563.528V183.373C563.118 183.37 562.714 183.287 562.336 183.129C561.96 182.989 561.628 182.751 561.374 182.439C561.151 182.16 561.03 181.812 561.032 181.455C561.024 181.204 561.102 180.957 561.252 180.756C561.311 180.669 561.39 180.597 561.483 180.548C561.576 180.498 561.679 180.472 561.785 180.47C561.848 180.468 561.911 180.479 561.969 180.502C562.028 180.525 562.081 180.56 562.126 180.605C562.171 180.649 562.206 180.703 562.229 180.761C562.252 180.82 562.263 180.883 562.261 180.946C562.24 181.139 562.159 181.32 562.029 181.465C561.962 181.555 561.904 181.651 561.857 181.753C561.825 181.832 561.809 181.917 561.81 182.003C561.811 182.232 561.889 182.453 562.032 182.632C562.188 182.831 562.395 182.986 562.631 183.079C562.901 183.184 563.188 183.235 563.477 183.229H563.528V179.135L563.17 178.928C562.832 178.732 562.574 178.569 562.396 178.439C562.222 178.313 562.062 178.17 561.916 178.013C561.556 177.629 561.356 177.122 561.358 176.596C561.357 176.268 561.439 175.946 561.597 175.659C561.751 175.372 561.978 175.131 562.255 174.96C562.64 174.727 563.078 174.596 563.527 174.577ZM563.527 174.715C563.285 174.723 563.045 174.776 562.822 174.872C562.599 174.982 562.416 175.159 562.298 175.378C562.163 175.617 562.094 175.887 562.098 176.16C562.095 176.494 562.198 176.821 562.391 177.093C562.494 177.241 562.617 177.374 562.757 177.487C562.983 177.656 563.22 177.811 563.465 177.95L563.527 177.988V174.715ZM563.81 183.216C563.971 183.203 564.131 183.169 564.284 183.116C564.408 183.068 564.524 183 564.627 182.916C564.821 182.751 564.971 182.541 565.064 182.304C565.173 182.043 565.228 181.763 565.227 181.48C565.202 181.026 565.058 180.586 564.809 180.205C564.56 179.824 564.215 179.516 563.81 179.311V183.216Z" fill="white"/>
<path d="M505.797 145.384H372.073C371.248 145.383 370.458 145.055 369.875 144.472C369.292 143.889 368.964 143.099 368.963 142.274V59.5521C368.964 58.7276 369.292 57.9371 369.875 57.3541C370.458 56.7711 371.248 56.4431 372.073 56.4422H505.797C506.621 56.4431 507.412 56.7711 507.995 57.3541C508.578 57.9371 508.906 58.7276 508.907 59.5521V142.274C508.906 143.099 508.578 143.889 507.995 144.472C507.412 145.055 506.621 145.383 505.797 145.384Z" fill="white"/>
<path d="M505.797 145.384H372.073C371.248 145.383 370.458 145.055 369.875 144.472C369.292 143.889 368.964 143.099 368.963 142.274V59.5521C368.964 58.7276 369.292 57.9371 369.875 57.3541C370.458 56.7711 371.248 56.4431 372.073 56.4422H505.797C506.621 56.4431 507.412 56.7711 507.995 57.3541C508.578 57.9371 508.906 58.7276 508.907 59.5521V142.274C508.906 143.099 508.578 143.889 507.995 144.472C507.412 145.055 506.621 145.383 505.797 145.384ZM372.073 57.6862C371.578 57.6867 371.104 57.8834 370.754 58.2333C370.404 58.5831 370.207 59.0574 370.207 59.5521V142.274C370.207 142.769 370.404 143.243 370.754 143.593C371.104 143.943 371.578 144.14 372.073 144.14H505.797C506.291 144.14 506.766 143.943 507.116 143.593C507.465 143.243 507.662 142.769 507.663 142.274V59.5521C507.662 59.0574 507.465 58.5831 507.116 58.2333C506.766 57.8834 506.291 57.6867 505.797 57.6862H372.073Z" fill="#3F3D56"/>
<path d="M479.363 84.0691H398.506C397.764 84.0691 397.052 83.7743 396.527 83.2494C396.002 82.7245 395.707 82.0126 395.707 81.2703C395.707 80.528 396.002 79.816 396.527 79.2911C397.052 78.7663 397.764 78.4714 398.506 78.4714H479.363C480.105 78.4714 480.817 78.7663 481.342 79.2911C481.867 79.816 482.162 80.528 482.162 81.2703C482.162 82.0126 481.867 82.7245 481.342 83.2494C480.817 83.7743 480.105 84.0691 479.363 84.0691Z" fill="#CCCCCC"/>
<path d="M479.363 103.35H398.506C397.764 103.35 397.052 103.055 396.527 102.531C396.002 102.006 395.707 101.294 395.707 100.551C395.707 99.8091 396.002 99.0972 396.527 98.5723C397.052 98.0474 397.764 97.7525 398.506 97.7525H479.363C480.105 97.7525 480.817 98.0474 481.342 98.5723C481.867 99.0972 482.162 99.8091 482.162 100.551C482.162 101.294 481.867 102.006 481.342 102.531C480.817 103.055 480.105 103.35 479.363 103.35Z" fill="#CCCCCC"/>
<path d="M472.159 133.921C477.683 133.921 482.162 129.443 482.162 123.919C482.162 118.394 477.683 113.916 472.159 113.916C466.635 113.916 462.157 118.394 462.157 123.919C462.157 129.443 466.635 133.921 472.159 133.921Z" fill="#F9A826"/>
<path d="M472.434 119.207V118.254H472.716V119.207C473.116 119.224 473.508 119.32 473.87 119.489C474.133 119.612 474.359 119.801 474.528 120.037C474.684 120.256 474.767 120.518 474.766 120.786C474.772 120.983 474.706 121.174 474.581 121.326C474.527 121.395 474.458 121.45 474.38 121.488C474.301 121.526 474.214 121.546 474.127 121.545C474.062 121.546 473.997 121.534 473.936 121.509C473.876 121.485 473.821 121.448 473.776 121.401C473.729 121.354 473.691 121.299 473.667 121.237C473.642 121.176 473.63 121.11 473.632 121.044C473.632 120.951 473.651 120.859 473.688 120.774L473.801 120.536C473.841 120.436 473.86 120.329 473.857 120.222C473.86 120.056 473.807 119.894 473.707 119.762C473.597 119.623 473.449 119.519 473.281 119.464C473.098 119.404 472.908 119.366 472.716 119.351V122.78L472.779 122.818C473.368 123.13 473.904 123.534 474.365 124.015C474.57 124.257 474.732 124.532 474.845 124.827C474.957 125.114 475.016 125.419 475.017 125.727C475.022 126.125 474.918 126.518 474.716 126.862C474.519 127.197 474.229 127.469 473.882 127.645C473.516 127.825 473.122 127.939 472.716 127.984V129.006H472.434V128.003C472.025 127.999 471.62 127.916 471.243 127.758C470.866 127.618 470.534 127.38 470.281 127.068C470.057 126.789 469.937 126.442 469.939 126.084C469.931 125.833 470.008 125.587 470.158 125.385C470.218 125.298 470.297 125.227 470.39 125.177C470.483 125.127 470.586 125.101 470.691 125.1C470.754 125.098 470.817 125.108 470.876 125.132C470.935 125.155 470.988 125.19 471.033 125.234C471.077 125.279 471.112 125.332 471.136 125.391C471.159 125.449 471.17 125.512 471.168 125.575C471.146 125.768 471.065 125.95 470.936 126.095C470.868 126.184 470.81 126.28 470.763 126.382C470.731 126.462 470.715 126.547 470.716 126.632C470.717 126.861 470.796 127.083 470.939 127.261C471.095 127.461 471.302 127.615 471.538 127.708C471.807 127.813 472.095 127.864 472.384 127.858H472.434V123.764L472.077 123.558C471.738 123.361 471.48 123.198 471.302 123.069C471.129 122.943 470.968 122.8 470.823 122.642C470.463 122.259 470.263 121.752 470.265 121.225C470.263 120.898 470.345 120.575 470.503 120.288C470.658 120.002 470.885 119.761 471.161 119.589C471.547 119.357 471.984 119.225 472.434 119.207ZM472.434 119.344C472.191 119.352 471.952 119.405 471.729 119.501C471.506 119.612 471.322 119.789 471.204 120.008C471.07 120.246 471.001 120.516 471.005 120.79C471.002 121.124 471.105 121.45 471.298 121.722C471.4 121.87 471.523 122.003 471.663 122.117C471.889 122.286 472.126 122.44 472.372 122.58L472.434 122.617V119.344ZM472.716 127.846C472.878 127.832 473.037 127.799 473.191 127.746C473.315 127.697 473.431 127.63 473.534 127.545C473.727 127.38 473.877 127.17 473.971 126.934C474.08 126.673 474.135 126.392 474.133 126.109C474.108 125.655 473.964 125.215 473.715 124.835C473.467 124.454 473.122 124.145 472.716 123.94V127.846Z" fill="white"/>
<path d="M228.588 133.041C227.423 132.957 226.253 133.129 225.162 133.546C224.071 133.962 223.084 134.613 222.272 135.452C221.459 136.291 220.841 137.298 220.459 138.402C220.078 139.507 219.944 140.681 220.066 141.843L194.358 153.895L206.941 161.599L229.424 148.973C231.362 148.639 233.11 147.606 234.338 146.07C235.565 144.533 236.186 142.599 236.083 140.636C235.979 138.672 235.16 136.814 233.778 135.414C232.397 134.014 230.55 133.17 228.588 133.041Z" fill="#FFB6B6"/>
<path d="M122.207 364.924L131.086 364.923L135.31 330.678L122.206 330.678L122.207 364.924Z" fill="#FFB6B6"/>
<path d="M119.943 362.025L137.428 362.024H137.428C140.384 362.025 143.218 363.199 145.307 365.288C147.397 367.378 148.571 370.212 148.571 373.167V373.529L119.943 373.53L119.943 362.025Z" fill="#2F2E41"/>
<path d="M167.511 364.924L176.39 364.923L180.614 330.678L167.51 330.678L167.511 364.924Z" fill="#FFB6B6"/>
<path d="M165.247 362.025L182.732 362.024H182.732C185.687 362.025 188.521 363.199 190.611 365.288C192.701 367.378 193.875 370.212 193.875 373.167V373.529L165.247 373.53L165.247 362.025Z" fill="#2F2E41"/>
<path d="M173.442 187.302L177.948 197.003L186.072 283.766L179.757 358.339H164.987L147.559 240.794L139.372 355.632L119.443 354.827L115.617 199.132L173.442 187.302Z" fill="#2F2E41"/>
<path d="M101.631 107.236L120.313 99.6352L146.683 101.114L170.127 109.657L177.948 197.003C157.553 208.14 136.894 211.18 115.875 203.217L96.3671 146.326L101.631 107.236Z" fill="#E4E4E4"/>
<path d="M162.833 111.967L171.124 109.657C171.124 109.657 177.394 105.58 179.458 117.7C181.521 129.821 192.137 148.673 192.137 148.673L210.311 138.988L218.725 157.363L190.024 174.748L159.8 144.295L162.833 111.967Z" fill="#E4E4E4"/>
<path d="M117.357 83.4524C116.35 81.1679 115.803 78.7073 115.747 76.2114C115.691 73.7155 116.127 71.2329 117.031 68.9056C117.935 66.5782 119.288 64.4517 121.013 62.6472C122.738 60.8428 124.802 59.3959 127.087 58.3891C129.371 57.3822 131.832 56.8353 134.328 56.7794C136.824 56.7235 139.306 57.1597 141.634 58.0632C143.961 58.9667 146.088 60.3198 147.892 62.0452C149.696 63.7706 151.143 65.8344 152.15 68.119L152.259 68.3705C154.259 72.9997 154.339 78.234 152.48 82.9219C151.559 85.2431 150.191 87.3603 148.452 89.1525C146.714 90.9448 144.639 92.3771 142.347 93.3676C137.717 95.368 132.483 95.4475 127.795 93.5886C123.107 91.7297 119.35 88.0847 117.35 83.4555L117.357 83.4524Z" fill="#FFB6B6"/>
<path d="M143.167 66.0529C147.12 66.7701 153.237 69.2588 156.632 66.3392C154.956 64.38 152.847 62.8373 150.472 61.8329C150.004 61.6777 149.571 61.4329 149.196 61.1121C148.039 59.9424 148.933 57.9268 148.404 56.3453C148.146 55.7673 147.758 55.2571 147.27 54.8546C146.782 54.4522 146.207 54.1686 145.591 54.0262C144.413 53.6736 143.178 53.6164 142.02 53.1889C139.281 52.1593 137.334 49.2131 134.526 48.4124C132.079 47.7048 129.617 48.8046 127.506 50.088C125.395 51.3715 123.306 52.8943 120.836 53.1379C118.99 53.3062 117.822 56.3424 115.969 56.4313C112.085 56.6202 112.301 54.0608 112.014 58.1403C111.848 60.5747 108.37 65.4176 108.426 67.8732C108.484 69.4822 108.199 71.0758 108.245 72.6898C108.349 75.7638 109.582 78.6916 111.708 80.9143C113.476 82.7323 115.776 83.9586 117.264 86.0309C118.038 87.131 118.575 88.4152 119.475 89.4106C120.376 90.4061 121.902 91.0052 122.908 90.2945C123.913 89.5838 123.932 88.0458 124.431 86.8754C124.737 86.1579 125.26 85.554 125.926 85.1484C126.592 84.7428 127.369 84.5558 128.147 84.6135C128.955 84.7191 129.717 85.048 130.348 85.5633C130.979 86.0786 131.454 86.7598 131.72 87.5303C131.249 84.9439 130.007 82.5205 129.536 79.9321C129.064 77.3438 129.679 74.2517 131.908 73.2411C132.865 72.7958 134.157 72.6762 134.542 71.6501C134.777 71.032 134.562 70.3018 134.653 69.6333C135.142 66.3575 140.589 65.5471 143.167 66.0529Z" fill="#2F2E41"/>
<path d="M118.114 202.207C117.944 201.051 117.522 199.947 116.879 198.972C116.236 197.997 115.387 197.175 114.391 196.564C113.396 195.953 112.279 195.567 111.118 195.434C109.958 195.301 108.782 195.425 107.675 195.795L90.3358 173.312L85.5423 187.266L102.743 206.477C103.489 208.297 104.876 209.78 106.642 210.644C108.409 211.509 110.431 211.696 112.325 211.17C114.22 210.643 115.856 209.44 116.923 207.788C117.99 206.136 118.414 204.15 118.114 202.207V202.207Z" fill="#FFB6B6"/>
<path d="M107.62 111.477L101.631 107.236C101.631 107.236 87.9296 106.451 85.9365 117.7L60.8137 159.028L91.9628 202.001L107.065 186.104L88.0093 163.836L104.008 134.461L107.62 111.477Z" fill="#E4E4E4"/>
<path d="M253.529 118.026H253.214V109.418C253.214 108.764 253.086 108.116 252.835 107.512C252.585 106.908 252.218 106.358 251.755 105.896C251.293 105.433 250.744 105.066 250.139 104.816C249.535 104.566 248.887 104.437 248.233 104.437H229.998C229.343 104.437 228.696 104.566 228.091 104.816C227.487 105.066 226.938 105.433 226.475 105.896C226.012 106.358 225.646 106.908 225.395 107.512C225.145 108.116 225.016 108.764 225.016 109.418V156.638C225.016 157.292 225.145 157.94 225.395 158.544C225.645 159.148 226.012 159.698 226.475 160.16C226.938 160.623 227.487 160.99 228.091 161.24C228.696 161.49 229.343 161.619 229.998 161.619H248.233C248.887 161.619 249.535 161.49 250.139 161.24C250.744 160.99 251.293 160.623 251.755 160.16C252.218 159.698 252.585 159.148 252.835 158.544C253.086 157.94 253.214 157.292 253.214 156.638V124.152H253.529V118.026Z" fill="#3F3D56"/>
<path d="M248.434 105.733H246.054C246.163 106.001 246.205 106.292 246.175 106.581C246.146 106.869 246.046 107.146 245.884 107.386C245.722 107.627 245.504 107.824 245.248 107.96C244.992 108.096 244.707 108.168 244.417 108.168H233.97C233.68 108.168 233.395 108.096 233.139 107.96C232.884 107.824 232.665 107.627 232.504 107.386C232.342 107.146 232.242 106.869 232.212 106.581C232.183 106.292 232.224 106.001 232.334 105.733H230.111C229.124 105.733 228.178 106.125 227.48 106.822C226.782 107.52 226.391 108.466 226.391 109.453V156.603C226.391 157.59 226.782 158.536 227.48 159.234C228.178 159.931 229.124 160.323 230.111 160.323H248.434C249.421 160.323 250.367 159.931 251.064 159.234C251.762 158.536 252.154 157.59 252.154 156.603V109.453C252.154 108.466 251.762 107.52 251.064 106.822C250.367 106.125 249.421 105.733 248.434 105.733Z" fill="#F9A826"/>
<path d="M412.917 88.9421H279.193C278.368 88.9412 277.578 88.6132 276.995 88.0302C276.412 87.4472 276.084 86.6568 276.083 85.8323V3.10987C276.084 2.28537 276.412 1.49491 276.995 0.9119C277.578 0.328892 278.368 0.000943582 279.193 0H412.917C413.742 0.000943586 414.532 0.328892 415.115 0.9119C415.698 1.49491 416.026 2.28537 416.027 3.10987V85.8323C416.026 86.6568 415.698 87.4472 415.115 88.0302C414.532 88.6132 413.742 88.9412 412.917 88.9421Z" fill="white"/>
<path d="M412.917 88.9421H279.193C278.368 88.9412 277.578 88.6132 276.995 88.0302C276.412 87.4472 276.084 86.6568 276.083 85.8323V3.10987C276.084 2.28537 276.412 1.49491 276.995 0.9119C277.578 0.328892 278.368 0.000943582 279.193 0H412.917C413.742 0.000943586 414.532 0.328892 415.115 0.9119C415.698 1.49491 416.026 2.28537 416.027 3.10987V85.8323C416.026 86.6568 415.698 87.4472 415.115 88.0302C414.532 88.6132 413.742 88.9412 412.917 88.9421ZM279.193 1.24395C278.698 1.24449 278.224 1.44125 277.874 1.79106C277.524 2.14087 277.327 2.61516 277.327 3.10987V85.8323C277.327 86.327 277.524 86.8013 277.874 87.1511C278.224 87.5009 278.698 87.6976 279.193 87.6982H412.917C413.412 87.6976 413.886 87.5009 414.236 87.1511C414.586 86.8013 414.782 86.327 414.783 85.8323V3.10987C414.782 2.61516 414.586 2.14087 414.236 1.79106C413.886 1.44125 413.412 1.24449 412.917 1.24395H279.193Z" fill="#3F3D56"/>
<path d="M386.483 27.627H305.627C304.884 27.627 304.173 27.3321 303.648 26.8072C303.123 26.2823 302.828 25.5704 302.828 24.8281C302.828 24.0858 303.123 23.3738 303.648 22.849C304.173 22.3241 304.884 22.0292 305.627 22.0292H386.483C387.226 22.0292 387.937 22.3241 388.462 22.849C388.987 23.3738 389.282 24.0858 389.282 24.8281C389.282 25.5704 388.987 26.2823 388.462 26.8072C387.937 27.3321 387.226 27.627 386.483 27.627Z" fill="#CCCCCC"/>
<path d="M386.483 46.9081H305.627C304.884 46.9081 304.173 46.6132 303.648 46.0883C303.123 45.5634 302.828 44.8515 302.828 44.1092C302.828 43.3669 303.123 42.655 303.648 42.1301C304.173 41.6052 304.884 41.3103 305.627 41.3103H386.483C387.226 41.3103 387.937 41.6052 388.462 42.1301C388.987 42.655 389.282 43.3669 389.282 44.1092C389.282 44.8515 388.987 45.5634 388.462 46.0883C387.937 46.6132 387.226 46.9081 386.483 46.9081Z" fill="#CCCCCC"/>
<path d="M379.28 77.4788C384.804 77.4788 389.282 73.0005 389.282 67.4764C389.282 61.9522 384.804 57.4739 379.28 57.4739C373.755 57.4739 369.277 61.9522 369.277 67.4764C369.277 73.0005 373.755 77.4788 379.28 77.4788Z" fill="#F9A826"/>
<path d="M379.554 62.7643V61.8114H379.837V62.7644C380.236 62.7817 380.628 62.8776 380.99 63.0465C381.253 63.17 381.48 63.3589 381.648 63.5952C381.804 63.8138 381.888 64.0758 381.887 64.3443C381.893 64.5405 381.827 64.7322 381.702 64.8835C381.648 64.9524 381.579 65.008 381.5 65.046C381.421 65.0841 381.335 65.1035 381.247 65.1029C381.182 65.1042 381.117 65.092 381.057 65.0672C380.996 65.0424 380.942 65.0055 380.896 64.9587C380.849 64.9122 380.812 64.8564 380.787 64.795C380.762 64.7335 380.75 64.6676 380.752 64.6014C380.752 64.5086 380.771 64.4168 380.808 64.3318L380.921 64.0935C380.961 63.9939 380.98 63.8873 380.978 63.78C380.981 63.6139 380.928 63.4516 380.827 63.3193C380.717 63.1806 380.569 63.0771 380.401 63.0214C380.218 62.9614 380.029 62.9235 379.837 62.9085V66.3379L379.899 66.3756C380.489 66.6875 381.024 67.0918 381.486 67.573C381.69 67.8148 381.852 68.0893 381.965 68.385C382.078 68.6716 382.136 68.9766 382.138 69.2846C382.143 69.6832 382.039 70.0757 381.837 70.4194C381.639 70.7549 381.35 71.0268 381.003 71.2031C380.637 71.3826 380.242 71.4972 379.837 71.5416V72.5635H379.555V71.5604C379.145 71.5572 378.741 71.4741 378.363 71.3159C377.987 71.1759 377.655 70.9378 377.401 70.6263C377.178 70.347 377.057 69.9995 377.059 69.642C377.051 69.3908 377.129 69.1444 377.279 68.9428C377.338 68.8559 377.417 68.7846 377.51 68.7349C377.603 68.6853 377.706 68.6588 377.812 68.6577C377.875 68.6555 377.938 68.6662 377.996 68.6893C378.055 68.7124 378.108 68.7474 378.153 68.792C378.198 68.8365 378.233 68.8898 378.256 68.9485C378.279 69.0072 378.29 69.0701 378.288 69.1331C378.267 69.3261 378.186 69.5076 378.056 69.6523C377.989 69.7418 377.931 69.8383 377.884 69.9401C377.852 70.0195 377.836 70.1046 377.837 70.1903C377.838 70.4189 377.916 70.6404 378.059 70.8188C378.215 71.0186 378.422 71.173 378.658 71.266C378.928 71.3711 379.215 71.4222 379.504 71.4163H379.555V67.3223L379.197 67.1154C378.859 66.919 378.6 66.756 378.423 66.6263C378.249 66.5005 378.089 66.3577 377.943 66.2C377.583 65.8164 377.383 65.3094 377.385 64.7831C377.384 64.4555 377.466 64.1329 377.623 63.8459C377.778 63.5595 378.005 63.3185 378.282 63.1468C378.667 62.9144 379.105 62.7829 379.554 62.7643ZM379.554 62.9023C379.312 62.9098 379.072 62.9629 378.849 63.0588C378.626 63.1693 378.443 63.3464 378.325 63.5656C378.19 63.8041 378.121 64.074 378.125 64.3477C378.122 64.6816 378.225 65.0078 378.418 65.2801C378.521 65.4282 378.644 65.561 378.784 65.6744C379.01 65.8433 379.247 65.9979 379.492 66.1374L379.554 66.175V62.9023ZM379.837 71.4037C379.998 71.3902 380.158 71.3565 380.311 71.3034C380.435 71.2553 380.551 71.1875 380.654 71.1028C380.848 70.9379 380.998 70.728 381.091 70.4916C381.2 70.2305 381.255 69.95 381.254 69.6671C381.229 69.2129 381.085 68.7733 380.836 68.3925C380.587 68.0117 380.242 67.7031 379.837 67.4978V71.4037Z" fill="white"/>
<path d="M272.923 373.979H0.714458C0.524972 373.979 0.343246 373.904 0.209259 373.77C0.0752725 373.636 0 373.454 0 373.265C0 373.075 0.0752725 372.893 0.209259 372.759C0.343246 372.625 0.524972 372.55 0.714458 372.55H272.923C273.113 372.55 273.294 372.625 273.428 372.759C273.562 372.893 273.638 373.075 273.638 373.265C273.638 373.454 273.562 373.636 273.428 373.77C273.294 373.904 273.113 373.979 272.923 373.979Z" fill="#CACACA"/>
</g>
<defs>
<clipPath id="clip0_1_295">
<rect width="600" height="373.979" fill="white"/>
</clipPath>
</defs>
</svg>
