<svg width="311" height="164" viewBox="0 0 311 164" fill="none" xmlns="http://www.w3.org/2000/svg">
<g filter="url(#filter0_di_34_3)">
<path d="M4.48151 116V6.90907H48.1605C56.1861 6.90907 62.8799 8.0987 68.2422 10.478C73.6044 12.8572 77.6349 16.1598 80.3338 20.3856C83.0326 24.576 84.3821 29.4055 84.3821 34.8743C84.3821 39.1356 83.5298 42.8821 81.8253 46.1136C80.1207 49.3096 77.777 51.9375 74.794 53.9971C71.8466 56.0213 68.473 57.4595 64.6733 58.3118V59.3771C68.8281 59.5547 72.7166 60.7265 76.3388 62.8927C79.9964 65.0589 82.9616 68.0951 85.2343 72.0014C87.5071 75.8721 88.6434 80.4886 88.6434 85.8508C88.6434 91.6392 87.2052 96.8061 84.3288 101.352C81.4879 105.861 77.2798 109.43 71.7045 112.058C66.1292 114.686 59.2578 116 51.0902 116H4.48151ZM27.5461 97.1434H46.3494C52.777 97.1434 57.4645 95.9183 60.4119 93.468C63.3594 90.9822 64.8331 87.6797 64.8331 83.5603C64.8331 80.5419 64.1051 77.8785 62.6491 75.5703C61.1932 73.262 59.1157 71.451 56.4169 70.1371C53.7535 68.8231 50.5753 68.1662 46.8821 68.1662H27.5461V97.1434ZM27.5461 52.5589H44.6449C47.8054 52.5589 50.6108 52.0085 53.0611 50.9076C55.5469 49.7713 57.5 48.1733 58.9204 46.1136C60.3764 44.054 61.1044 41.5859 61.1044 38.7095C61.1044 34.7677 59.7017 31.5895 56.8963 29.1747C54.1264 26.7599 50.1846 25.5525 45.071 25.5525H27.5461V52.5589Z" fill="#F9A826"/>
<path d="M103.225 116V34.1818H125.917V116H103.225ZM114.624 23.6349C111.251 23.6349 108.357 22.5163 105.942 20.2791C103.563 18.0064 102.373 15.2897 102.373 12.1292C102.373 9.00423 103.563 6.32313 105.942 4.08592C108.357 1.81318 111.251 0.676819 114.624 0.676819C117.998 0.676819 120.874 1.81318 123.254 4.08592C125.668 6.32313 126.876 9.00423 126.876 12.1292C126.876 15.2897 125.668 18.0064 123.254 20.2791C120.874 22.5163 117.998 23.6349 114.624 23.6349Z" fill="#F9A826"/>
<path d="M158.104 146.682C155.227 146.682 152.528 146.451 150.007 145.989C147.521 145.563 145.462 145.013 143.828 144.338L148.942 127.399C151.605 128.216 154.002 128.66 156.133 128.731C158.299 128.802 160.163 128.305 161.726 127.239C163.324 126.174 164.62 124.363 165.614 121.806L166.946 118.344L137.596 34.1818H161.459L178.398 94.267H179.251L196.349 34.1818H220.373L188.572 124.842C187.045 129.246 184.968 133.081 182.34 136.348C179.748 139.651 176.463 142.19 172.486 143.965C168.508 145.776 163.714 146.682 158.104 146.682Z" fill="#F9A826"/>
<path d="M266.316 117.598C258.042 117.598 250.886 115.84 244.849 112.325C238.848 108.773 234.213 103.837 230.946 97.5163C227.679 91.1598 226.046 83.7912 226.046 75.4105C226.046 66.9588 227.679 59.5724 230.946 53.2514C234.213 46.8949 238.848 41.9588 244.849 38.4432C250.886 34.892 258.042 33.1165 266.316 33.1165C274.59 33.1165 281.728 34.892 287.729 38.4432C293.766 41.9588 298.418 46.8949 301.685 53.2514C304.952 59.5724 306.586 66.9588 306.586 75.4105C306.586 83.7912 304.952 91.1598 301.685 97.5163C298.418 103.837 293.766 108.773 287.729 112.325C281.728 115.84 274.59 117.598 266.316 117.598ZM266.422 100.02C270.186 100.02 273.329 98.9545 275.85 96.8238C278.372 94.6577 280.272 91.7102 281.55 87.9815C282.864 84.2528 283.521 80.0092 283.521 75.2507C283.521 70.4922 282.864 66.2486 281.55 62.5199C280.272 58.7912 278.372 55.8437 275.85 53.6775C273.329 51.5113 270.186 50.4282 266.422 50.4282C262.622 50.4282 259.426 51.5113 256.834 53.6775C254.277 55.8437 252.342 58.7912 251.028 62.5199C249.75 66.2486 249.11 70.4922 249.11 75.2507C249.11 80.0092 249.75 84.2528 251.028 87.9815C252.342 91.7102 254.277 94.6577 256.834 96.8238C259.426 98.9545 262.622 100.02 266.422 100.02Z" fill="#F9A826"/>
<path d="M196.523 155.591C195.023 155.591 193.735 155.061 192.659 154C191.598 152.924 191.068 151.636 191.068 150.136C191.068 148.651 191.598 147.379 192.659 146.318C193.735 145.258 195.023 144.727 196.523 144.727C197.977 144.727 199.25 145.258 200.341 146.318C201.432 147.379 201.977 148.651 201.977 150.136C201.977 151.136 201.72 152.053 201.205 152.886C200.705 153.705 200.045 154.364 199.227 154.864C198.409 155.348 197.508 155.591 196.523 155.591Z" fill="black"/>
<path d="M209.926 155V120.091H219.153V126.25H219.562C220.29 124.205 221.502 122.591 223.199 121.409C224.896 120.227 226.926 119.636 229.29 119.636C231.684 119.636 233.722 120.235 235.403 121.432C237.085 122.614 238.206 124.22 238.767 126.25H239.131C239.843 124.25 241.131 122.651 242.994 121.455C244.873 120.242 247.093 119.636 249.653 119.636C252.911 119.636 255.555 120.674 257.585 122.75C259.631 124.811 260.653 127.735 260.653 131.523V155H250.994V133.432C250.994 131.492 250.479 130.038 249.449 129.068C248.419 128.098 247.131 127.614 245.585 127.614C243.828 127.614 242.456 128.174 241.472 129.295C240.487 130.401 239.994 131.864 239.994 133.682V155H230.608V133.227C230.608 131.515 230.116 130.151 229.131 129.136C228.161 128.121 226.881 127.614 225.29 127.614C224.214 127.614 223.244 127.886 222.381 128.432C221.532 128.962 220.858 129.712 220.358 130.682C219.858 131.636 219.608 132.758 219.608 134.045V155H209.926Z" fill="black"/>
<path d="M284.21 155.682C280.619 155.682 277.528 154.955 274.937 153.5C272.362 152.03 270.377 149.955 268.983 147.273C267.589 144.576 266.892 141.386 266.892 137.705C266.892 134.114 267.589 130.962 268.983 128.25C270.377 125.538 272.339 123.424 274.869 121.909C277.415 120.394 280.4 119.636 283.824 119.636C286.127 119.636 288.271 120.008 290.256 120.75C292.256 121.477 293.998 122.576 295.483 124.045C296.983 125.515 298.15 127.364 298.983 129.591C299.816 131.803 300.233 134.394 300.233 137.364V140.023L276.46 140.045V134.341L291.119 134.023C291.119 132.629 290.816 131.394 290.21 130.318C289.604 129.242 288.763 128.401 287.687 127.795C286.627 127.174 285.392 126.864 283.983 126.864C282.513 126.864 281.21 127.205 280.074 127.886C278.953 128.553 278.074 129.455 277.437 130.591C276.801 131.712 276.475 132.962 276.46 134.341V140.045C276.46 141.773 276.778 143.265 277.415 144.523C278.066 145.78 278.983 146.75 280.165 147.432C281.347 148.114 282.748 148.455 284.369 148.455C285.445 148.455 286.43 148.303 287.324 148C288.218 147.697 288.983 147.242 289.619 146.636C290.256 146.03 290.74 145.288 291.074 144.409L300.028 145C299.574 147.151 298.642 149.03 297.233 150.636C295.839 152.227 294.036 153.47 291.824 154.364C289.627 155.242 287.089 155.682 284.21 155.682Z" fill="black"/>
</g>
<defs>
<filter id="filter0_di_34_3" x="0.481506" y="0.676819" width="310.104" height="163.005" filterUnits="userSpaceOnUse" color-interpolation-filters="sRGB">
<feFlood flood-opacity="0" result="BackgroundImageFix"/>
<feColorMatrix in="SourceAlpha" type="matrix" values="0 0 0 0 0 0 0 0 0 0 0 0 0 0 0 0 0 0 127 0" result="hardAlpha"/>
<feOffset dy="4"/>
<feGaussianBlur stdDeviation="2"/>
<feComposite in2="hardAlpha" operator="out"/>
<feColorMatrix type="matrix" values="0 0 0 0 0 0 0 0 0 0 0 0 0 0 0 0 0 0 0.25 0"/>
<feBlend mode="normal" in2="BackgroundImageFix" result="effect1_dropShadow_34_3"/>
<feBlend mode="normal" in="SourceGraphic" in2="effect1_dropShadow_34_3" result="shape"/>
<feColorMatrix in="SourceAlpha" type="matrix" values="0 0 0 0 0 0 0 0 0 0 0 0 0 0 0 0 0 0 127 0" result="hardAlpha"/>
<feOffset dy="4"/>
<feGaussianBlur stdDeviation="2"/>
<feComposite in2="hardAlpha" operator="arithmetic" k2="-1" k3="1"/>
<feColorMatrix type="matrix" values="0 0 0 0 0 0 0 0 0 0 0 0 0 0 0 0 0 0 0.25 0"/>
<feBlend mode="normal" in2="shape" result="effect2_innerShadow_34_3"/>
</filter>
</defs>
</svg>
