<svg width="311" height="164" viewBox="0 0 311 164" fill="none" xmlns="http://www.w3.org/2000/svg">
<g filter="url(#filter0_di_34_4)">
<path d="M4 115.323V6.23225H47.679C55.7045 6.23225 62.3984 7.42188 67.7607 9.80114C73.1229 12.1804 77.1534 15.483 79.8523 19.7088C82.5511 23.8992 83.9006 28.7287 83.9006 34.1974C83.9006 38.4588 83.0483 42.2053 81.3438 45.4368C79.6392 48.6328 77.2955 51.2607 74.3125 53.3203C71.3651 55.3445 67.9915 56.7827 64.1918 57.6349V58.7003C68.3466 58.8778 72.2351 60.0497 75.8572 62.2159C79.5149 64.3821 82.4801 67.4183 84.7528 71.3246C87.0256 75.1953 88.1619 79.8118 88.1619 85.174C88.1619 90.9624 86.7237 96.1293 83.8473 100.675C81.0064 105.185 76.7983 108.754 71.223 111.381C65.6477 114.009 58.7763 115.323 50.6087 115.323H4ZM27.0646 96.4666H45.8679C52.2955 96.4666 56.983 95.2415 59.9304 92.7912C62.8778 90.3054 64.3516 87.0028 64.3516 82.8835C64.3516 79.8651 63.6236 77.2017 62.1676 74.8935C60.7117 72.5852 58.6342 70.7742 55.9354 69.4602C53.272 68.1463 50.0938 67.4893 46.4006 67.4893H27.0646V96.4666ZM27.0646 51.8821H44.1634C47.3239 51.8821 50.1293 51.3317 52.5795 50.2308C55.0653 49.0945 57.0185 47.4965 58.4389 45.4368C59.8949 43.3771 60.6229 40.9091 60.6229 38.0327C60.6229 34.0909 59.2202 30.9126 56.4148 28.4979C53.6449 26.0831 49.7031 24.8757 44.5895 24.8757H27.0646V51.8821Z" fill="white"/>
<path d="M102.744 115.323V33.505H125.436V115.323H102.744ZM114.143 22.9581C110.769 22.9581 107.875 21.8395 105.46 19.6023C103.081 17.3295 101.892 14.6129 101.892 11.4524C101.892 8.32742 103.081 5.64631 105.46 3.4091C107.875 1.13637 110.769 0 114.143 0C117.517 0 120.393 1.13637 122.772 3.4091C125.187 5.64631 126.394 8.32742 126.394 11.4524C126.394 14.6129 125.187 17.3295 122.772 19.6023C120.393 21.8395 117.517 22.9581 114.143 22.9581Z" fill="white"/>
<path d="M157.622 146.005C154.746 146.005 152.047 145.774 149.526 145.312C147.04 144.886 144.98 144.336 143.347 143.661L148.46 126.722C151.124 127.539 153.521 127.983 155.651 128.054C157.817 128.125 159.682 127.628 161.244 126.563C162.842 125.497 164.138 123.686 165.133 121.129L166.464 117.667L137.114 33.505H160.978L177.917 93.5902H178.769L195.868 33.505H219.891L188.091 124.165C186.564 128.569 184.487 132.404 181.859 135.671C179.266 138.974 175.982 141.513 172.004 143.288C168.027 145.099 163.233 146.005 157.622 146.005Z" fill="white"/>
<path d="M265.834 116.921C257.56 116.921 250.404 115.163 244.368 111.648C238.366 108.097 233.732 103.161 230.465 96.8395C227.198 90.483 225.564 83.1144 225.564 74.7337C225.564 66.282 227.198 58.8956 230.465 52.5746C233.732 46.218 238.366 41.282 244.368 37.7663C250.404 34.2152 257.56 32.4396 265.834 32.4396C274.108 32.4396 281.246 34.2152 287.248 37.7663C293.284 41.282 297.936 46.218 301.203 52.5746C304.471 58.8956 306.104 66.282 306.104 74.7337C306.104 83.1144 304.471 90.483 301.203 96.8395C297.936 103.161 293.284 108.097 287.248 111.648C281.246 115.163 274.108 116.921 265.834 116.921ZM265.941 99.343C269.705 99.343 272.848 98.2777 275.369 96.147C277.89 93.9808 279.79 91.0334 281.069 87.3047C282.382 83.576 283.039 79.3324 283.039 74.5739C283.039 69.8153 282.382 65.5717 281.069 61.843C279.79 58.1144 277.89 55.1669 275.369 53.0007C272.848 50.8345 269.705 49.7514 265.941 49.7514C262.141 49.7514 258.945 50.8345 256.353 53.0007C253.796 55.1669 251.86 58.1144 250.547 61.843C249.268 65.5717 248.629 69.8153 248.629 74.5739C248.629 79.3324 249.268 83.576 250.547 87.3047C251.86 91.0334 253.796 93.9808 256.353 96.147C258.945 98.2777 262.141 99.343 265.941 99.343Z" fill="white"/>
<path d="M196.041 154.914C194.541 154.914 193.253 154.384 192.178 153.323C191.117 152.247 190.587 150.96 190.587 149.46C190.587 147.975 191.117 146.702 192.178 145.641C193.253 144.581 194.541 144.05 196.041 144.05C197.496 144.05 198.768 144.581 199.859 145.641C200.95 146.702 201.496 147.975 201.496 149.46C201.496 150.46 201.238 151.376 200.723 152.21C200.223 153.028 199.564 153.687 198.746 154.187C197.928 154.672 197.026 154.914 196.041 154.914Z" fill="#F9A826"/>
<path d="M209.445 154.323V119.414H218.672V125.573H219.081C219.808 123.528 221.02 121.914 222.717 120.732C224.414 119.55 226.445 118.96 228.808 118.96C231.202 118.96 233.24 119.558 234.922 120.755C236.604 121.937 237.725 123.543 238.286 125.573H238.649C239.361 123.573 240.649 121.975 242.513 120.778C244.392 119.566 246.611 118.96 249.172 118.96C252.429 118.96 255.073 119.997 257.104 122.073C259.149 124.134 260.172 127.058 260.172 130.846V154.323H250.513V132.755C250.513 130.816 249.998 129.361 248.967 128.391C247.937 127.422 246.649 126.937 245.104 126.937C243.346 126.937 241.975 127.497 240.99 128.619C240.005 129.725 239.513 131.187 239.513 133.005V154.323H230.126V132.55C230.126 130.838 229.634 129.475 228.649 128.46C227.679 127.444 226.399 126.937 224.808 126.937C223.732 126.937 222.763 127.21 221.899 127.755C221.051 128.285 220.376 129.035 219.876 130.005C219.376 130.96 219.126 132.081 219.126 133.369V154.323H209.445Z" fill="#F9A826"/>
<path d="M283.729 155.005C280.138 155.005 277.047 154.278 274.456 152.823C271.88 151.353 269.895 149.278 268.501 146.596C267.107 143.899 266.411 140.71 266.411 137.028C266.411 133.437 267.107 130.285 268.501 127.573C269.895 124.861 271.857 122.747 274.388 121.232C276.933 119.717 279.918 118.96 283.342 118.96C285.645 118.96 287.789 119.331 289.774 120.073C291.774 120.8 293.517 121.899 295.001 123.369C296.501 124.838 297.668 126.687 298.501 128.914C299.335 131.126 299.751 133.717 299.751 136.687V139.346L275.979 139.369V133.664L290.638 133.346C290.638 131.952 290.335 130.717 289.729 129.641C289.123 128.566 288.282 127.725 287.206 127.119C286.145 126.497 284.911 126.187 283.501 126.187C282.032 126.187 280.729 126.528 279.592 127.21C278.471 127.876 277.592 128.778 276.956 129.914C276.32 131.035 275.994 132.285 275.979 133.664V139.369C275.979 141.096 276.297 142.588 276.933 143.846C277.585 145.103 278.501 146.073 279.683 146.755C280.865 147.437 282.267 147.778 283.888 147.778C284.964 147.778 285.948 147.626 286.842 147.323C287.736 147.02 288.501 146.566 289.138 145.96C289.774 145.353 290.259 144.611 290.592 143.732L299.547 144.323C299.092 146.475 298.161 148.353 296.751 149.96C295.357 151.55 293.554 152.793 291.342 153.687C289.145 154.566 286.607 155.005 283.729 155.005Z" fill="#F9A826"/>
</g>
<defs>
<filter id="filter0_di_34_4" x="0" y="0" width="310.104" height="163.005" filterUnits="userSpaceOnUse" color-interpolation-filters="sRGB">
<feFlood flood-opacity="0" result="BackgroundImageFix"/>
<feColorMatrix in="SourceAlpha" type="matrix" values="0 0 0 0 0 0 0 0 0 0 0 0 0 0 0 0 0 0 127 0" result="hardAlpha"/>
<feOffset dy="4"/>
<feGaussianBlur stdDeviation="2"/>
<feComposite in2="hardAlpha" operator="out"/>
<feColorMatrix type="matrix" values="0 0 0 0 0 0 0 0 0 0 0 0 0 0 0 0 0 0 0.25 0"/>
<feBlend mode="normal" in2="BackgroundImageFix" result="effect1_dropShadow_34_4"/>
<feBlend mode="normal" in="SourceGraphic" in2="effect1_dropShadow_34_4" result="shape"/>
<feColorMatrix in="SourceAlpha" type="matrix" values="0 0 0 0 0 0 0 0 0 0 0 0 0 0 0 0 0 0 127 0" result="hardAlpha"/>
<feOffset dy="4"/>
<feGaussianBlur stdDeviation="2"/>
<feComposite in2="hardAlpha" operator="arithmetic" k2="-1" k3="1"/>
<feColorMatrix type="matrix" values="0 0 0 0 0 0 0 0 0 0 0 0 0 0 0 0 0 0 0.25 0"/>
<feBlend mode="normal" in2="shape" result="effect2_innerShadow_34_4"/>
</filter>
</defs>
</svg>
