<svg width="125" height="68" viewBox="0 0 125 68" fill="none" xmlns="http://www.w3.org/2000/svg">
<g filter="url(#filter0_di_1_91)">
<path d="M4 44.6398V2.41241H20.8784C23.9797 2.41241 26.5663 2.87289 28.6384 3.79387C30.7105 4.71484 32.268 5.99321 33.3109 7.62897C34.3537 9.25099 34.8752 11.1204 34.8752 13.2373C34.8752 14.8868 34.5459 16.337 33.8872 17.5879C33.2285 18.825 32.3228 19.8422 31.1702 20.6395C30.0312 21.423 28.7276 21.9797 27.2593 22.3096V22.722C28.8648 22.7907 30.3674 23.2443 31.7671 24.0828C33.1805 24.9213 34.3263 26.0966 35.2045 27.6086C36.0828 29.1069 36.5219 30.8939 36.5219 32.9695C36.5219 35.2101 35.9661 37.2101 34.8546 38.9696C33.7568 40.7153 32.1307 42.0968 29.9763 43.114C27.8219 44.1312 25.1667 44.6398 22.0105 44.6398H4ZM12.9126 37.3407H20.1786C22.6623 37.3407 24.4737 36.8665 25.6126 35.918C26.7516 34.9558 27.3211 33.6774 27.3211 32.0829C27.3211 30.9145 27.0398 29.8836 26.4771 28.9901C25.9145 28.0966 25.1118 27.3956 24.0689 26.887C23.0397 26.3784 21.8116 26.1241 20.3844 26.1241H12.9126V37.3407ZM12.9126 20.0828H19.5199C20.7412 20.0828 21.8253 19.8697 22.7721 19.4436C23.7327 19.0037 24.4874 18.3851 25.0363 17.5879C25.5989 16.7906 25.8802 15.8353 25.8802 14.7219C25.8802 13.1961 25.3382 11.9658 24.2541 11.0311C23.1838 10.0964 21.6606 9.629 19.6846 9.629H12.9126V20.0828Z" fill="white"/>
<path d="M42.1566 44.6398V12.9693H50.9252V44.6398H42.1566ZM46.5615 8.88672C45.2578 8.88672 44.1395 8.45373 43.2064 7.58773C42.287 6.708 41.8273 5.65644 41.8273 4.43305C41.8273 3.22341 42.287 2.1856 43.2064 1.31961C44.1395 0.439869 45.2578 0 46.5615 0C47.8651 0 48.9766 0.439869 49.896 1.31961C50.8291 2.1856 51.2957 3.22341 51.2957 4.43305C51.2957 5.65644 50.8291 6.708 49.896 7.58773C48.9766 8.45373 47.8651 8.88672 46.5615 8.88672Z" fill="white"/>
<path d="M63.3627 56.5162C62.2512 56.5162 61.2083 56.4269 60.234 56.2482C59.2735 56.0832 58.4776 55.8702 57.8463 55.609L59.8224 49.0522C60.8515 49.3684 61.7778 49.5402 62.6011 49.5677C63.4382 49.5952 64.1586 49.4027 64.7624 48.9904C65.3799 48.578 65.8808 47.877 66.265 46.8872L66.7796 45.547L55.4381 12.9693H64.6595L71.205 36.2273H71.5343L78.1416 12.9693H87.4248L75.1365 48.0625C74.5464 49.767 73.7436 51.2516 72.7282 52.5162C71.7265 53.7946 70.4571 54.7774 68.9202 55.4647C67.3833 56.1657 65.5308 56.5162 63.3627 56.5162Z" fill="white"/>
<path d="M105.178 45.2584C101.981 45.2584 99.2157 44.5779 96.8829 43.2171C94.5638 41.8425 92.7731 39.9318 91.5106 37.4851C90.2481 35.0245 89.6169 32.1723 89.6169 28.9282C89.6169 25.6567 90.2481 22.7976 91.5106 20.3508C92.7731 17.8903 94.5638 15.9796 96.8829 14.6188C99.2157 13.2442 101.981 12.5569 105.178 12.5569C108.375 12.5569 111.134 13.2442 113.453 14.6188C115.785 15.9796 117.583 17.8903 118.845 20.3508C120.108 22.7976 120.739 25.6567 120.739 28.9282C120.739 32.1723 120.108 35.0245 118.845 37.4851C117.583 39.9318 115.785 41.8425 113.453 43.2171C111.134 44.5779 108.375 45.2584 105.178 45.2584ZM105.219 38.4541C106.674 38.4541 107.888 38.0418 108.862 37.217C109.837 36.3785 110.571 35.2376 111.065 33.7943C111.573 32.351 111.826 30.7083 111.826 28.8664C111.826 27.0244 111.573 25.3818 111.065 23.9385C110.571 22.4952 109.837 21.3542 108.862 20.5157C107.888 19.6772 106.674 19.258 105.219 19.258C103.751 19.258 102.516 19.6772 101.514 20.5157C100.526 21.3542 99.7783 22.4952 99.2706 23.9385C98.7766 25.3818 98.5296 27.0244 98.5296 28.8664C98.5296 30.7083 98.7766 32.351 99.2706 33.7943C99.7783 35.2376 100.526 36.3785 101.514 37.217C102.516 38.0418 103.751 38.4541 105.219 38.4541Z" fill="white"/>
<path d="M78.2086 59.9648C77.629 59.9648 77.1313 59.7595 76.7156 59.349C76.3058 58.9326 76.1009 58.4341 76.1009 57.8534C76.1009 57.2787 76.3058 56.786 76.7156 56.3755C77.1313 55.9649 77.629 55.7597 78.2086 55.7597C78.7707 55.7597 79.2625 55.9649 79.684 56.3755C80.1056 56.786 80.3163 57.2787 80.3163 57.8534C80.3163 58.2405 80.2168 58.5954 80.0178 58.9179C79.8245 59.2346 79.5699 59.4898 79.2537 59.6833C78.9375 59.871 78.5892 59.9648 78.2086 59.9648Z" fill="black"/>
<path d="M83.388 59.7361V46.2233H86.9536V48.6074H87.1116C87.3927 47.8156 87.8611 47.191 88.5168 46.7336C89.1725 46.2761 89.9571 46.0474 90.8705 46.0474C91.7955 46.0474 92.583 46.279 93.2329 46.7424C93.8828 47.1998 94.316 47.8215 94.5327 48.6074H94.6732C94.9484 47.8332 95.446 47.2145 96.1662 46.7512C96.8922 46.282 97.7499 46.0474 98.7394 46.0474C99.9982 46.0474 101.02 46.4491 101.804 47.2526C102.595 48.0502 102.99 49.1822 102.99 50.6484V59.7361H99.2575V51.3874C99.2575 50.6367 99.0585 50.0736 98.6603 49.6983C98.2622 49.3229 97.7645 49.1353 97.1673 49.1353C96.4882 49.1353 95.9583 49.3522 95.5777 49.7863C95.1972 50.2144 95.0069 50.7804 95.0069 51.4841V59.7361H91.3798V51.3082C91.3798 50.6455 91.1895 50.1176 90.809 49.7247C90.4343 49.3317 89.9395 49.1353 89.3248 49.1353C88.9091 49.1353 88.5344 49.2408 88.2006 49.452C87.8728 49.6572 87.6122 49.9475 87.419 50.3229C87.2258 50.6924 87.1292 51.1264 87.1292 51.6249V59.7361H83.388Z" fill="black"/>
<path d="M112.093 60C110.705 60 109.511 59.7185 108.51 59.1555C107.514 58.5866 106.747 57.7831 106.209 56.745C105.67 55.701 105.401 54.4665 105.401 53.0413C105.401 51.6513 105.67 50.4314 106.209 49.3816C106.747 48.3318 107.506 47.5136 108.483 46.9271C109.467 46.3406 110.62 46.0474 111.944 46.0474C112.833 46.0474 113.662 46.1911 114.429 46.4784C115.202 46.76 115.875 47.1852 116.449 47.7541C117.028 48.323 117.479 49.0385 117.801 49.9006C118.123 50.7569 118.284 51.7598 118.284 52.9093V53.9386L109.098 53.9474V51.7393L114.763 51.6161C114.763 51.0765 114.646 50.5985 114.411 50.1821C114.177 49.7657 113.852 49.4402 113.437 49.2056C113.027 48.9652 112.55 48.8449 112.005 48.8449C111.437 48.8449 110.934 48.9769 110.494 49.2408C110.061 49.4989 109.722 49.8478 109.476 50.2877C109.23 50.7217 109.104 51.2056 109.098 51.7393V53.9474C109.098 54.616 109.221 55.1937 109.467 55.6805C109.719 56.1673 110.073 56.5426 110.53 56.8066C110.986 57.0705 111.528 57.2024 112.154 57.2024C112.57 57.2024 112.951 57.1438 113.296 57.0265C113.641 56.9092 113.937 56.7332 114.183 56.4986C114.429 56.264 114.616 55.9767 114.745 55.6365L118.205 55.8652C118.03 56.6981 117.67 57.4253 117.125 58.047C116.586 58.6628 115.89 59.1437 115.035 59.4898C114.186 59.8299 113.205 60 112.093 60Z" fill="black"/>
</g>
<defs>
<filter id="filter0_di_1_91" x="0" y="0" width="124.739" height="68" filterUnits="userSpaceOnUse" color-interpolation-filters="sRGB">
<feFlood flood-opacity="0" result="BackgroundImageFix"/>
<feColorMatrix in="SourceAlpha" type="matrix" values="0 0 0 0 0 0 0 0 0 0 0 0 0 0 0 0 0 0 127 0" result="hardAlpha"/>
<feOffset dy="4"/>
<feGaussianBlur stdDeviation="2"/>
<feComposite in2="hardAlpha" operator="out"/>
<feColorMatrix type="matrix" values="0 0 0 0 0 0 0 0 0 0 0 0 0 0 0 0 0 0 0.25 0"/>
<feBlend mode="normal" in2="BackgroundImageFix" result="effect1_dropShadow_1_91"/>
<feBlend mode="normal" in="SourceGraphic" in2="effect1_dropShadow_1_91" result="shape"/>
<feColorMatrix in="SourceAlpha" type="matrix" values="0 0 0 0 0 0 0 0 0 0 0 0 0 0 0 0 0 0 127 0" result="hardAlpha"/>
<feOffset dy="4"/>
<feGaussianBlur stdDeviation="2"/>
<feComposite in2="hardAlpha" operator="arithmetic" k2="-1" k3="1"/>
<feColorMatrix type="matrix" values="0 0 0 0 0 0 0 0 0 0 0 0 0 0 0 0 0 0 0.25 0"/>
<feBlend mode="normal" in2="shape" result="effect2_innerShadow_1_91"/>
</filter>
</defs>
</svg>
