<svg width="586" height="363" viewBox="0 0 586 363" fill="none" xmlns="http://www.w3.org/2000/svg">
<g clip-path="url(#clip0_1_92)">
<path d="M509.228 284.641C509.098 284.475 508.968 284.31 508.84 284.144C508.712 283.978 508.584 283.811 508.456 283.644C508.329 283.477 508.202 283.31 508.076 283.142C507.95 282.974 507.824 282.806 507.699 282.636C507.49 277.772 507.487 272.95 507.691 268.172C507.889 263.427 508.291 258.74 508.896 254.109C509.493 249.513 510.284 244.988 511.27 240.535C512.247 236.115 513.412 231.778 514.765 227.525C514.919 227.035 515.076 226.547 515.235 226.06C515.395 225.574 515.558 225.091 515.724 224.61C515.888 224.128 516.056 223.648 516.227 223.17C516.397 222.692 516.57 222.215 516.746 221.741C518.049 218.19 519.483 214.725 521.048 211.348C522.602 207.994 524.281 204.733 526.084 201.565C527.873 198.418 529.781 195.369 531.807 192.417C533.818 189.487 535.941 186.659 538.177 183.934L538.529 183.506L538.883 183.081L539.237 182.658L539.593 182.237L539.849 181.935L540.108 181.634C540.195 181.535 540.282 181.435 540.369 181.336C540.457 181.237 540.546 181.139 540.636 181.042L540.848 180.926L541.059 180.81L541.269 180.696L541.479 180.581L541.492 180.577L541.505 180.57L541.518 180.564L541.531 180.559L541.616 180.513L541.699 180.466L541.781 180.42L541.861 180.373L542.226 180.177L542.59 179.985L542.953 179.792L543.314 179.598L543.039 179.46L542.347 179.116L542.352 179.114C542.412 179.139 542.47 179.166 542.529 179.194C542.587 179.222 542.646 179.249 542.705 179.276C542.764 179.303 542.823 179.331 542.881 179.358C542.938 179.386 542.997 179.414 543.056 179.443L543.122 179.471L543.19 179.5L543.259 179.53C543.281 179.539 543.304 179.55 543.325 179.562C543.344 179.572 543.364 179.581 543.384 179.588L543.444 179.613L543.503 179.638L543.563 179.664C546.082 180.818 548.608 181.99 551.102 183.218C553.595 184.447 556.049 185.728 558.438 187.106C560.82 188.473 563.128 189.965 565.353 191.575C567.573 193.177 569.673 194.937 571.638 196.841C573.712 198.867 575.566 201.104 577.171 203.517C578.759 205.888 580.064 208.436 581.061 211.109C582.02 213.654 582.592 216.328 582.756 219.042C582.915 221.652 582.548 224.268 581.676 226.734C581.558 227.056 581.431 227.373 581.295 227.686C581.158 227.998 581.013 228.306 580.859 228.609C580.704 228.912 580.541 229.21 580.368 229.502C580.195 229.795 580.014 230.082 579.824 230.363C579.744 230.481 579.663 230.597 579.581 230.713C579.498 230.828 579.415 230.942 579.33 231.056C579.245 231.169 579.159 231.282 579.072 231.394C578.985 231.507 578.897 231.618 578.808 231.729C577.158 233.802 575.061 235.476 572.674 236.626C570.273 237.773 567.665 238.42 565.006 238.527C562.213 238.644 559.422 238.239 556.777 237.333C553.94 236.365 551.303 234.887 548.998 232.971C548.201 232.313 547.446 231.606 546.737 230.854C546.034 230.109 545.379 229.321 544.774 228.495C544.174 227.676 543.627 226.82 543.135 225.932C542.647 225.051 542.216 224.139 541.846 223.202C541.672 226.112 542.124 229.027 543.172 231.748C544.277 234.609 545.779 237.301 547.634 239.743C549.594 242.344 551.768 244.776 554.134 247.014C556.515 249.297 559.046 251.437 561.545 253.408C564.044 255.379 566.631 257.395 569.136 259.497C571.639 261.564 574.021 263.772 576.271 266.111C578.454 268.37 580.384 270.86 582.029 273.536C583.644 276.178 584.812 279.068 585.485 282.09C586.206 285.383 586.17 288.795 585.379 292.071C584.994 293.665 584.447 295.215 583.745 296.697C583.037 298.19 582.189 299.614 581.212 300.947L581.121 301.069L581.03 301.191L580.936 301.312L580.841 301.432C578.458 304.546 575.465 307.144 572.046 309.066C570.325 310.033 568.511 310.824 566.631 311.429C564.707 312.048 562.726 312.474 560.718 312.701C556.897 313.053 553.044 312.833 549.288 312.047C545.421 311.238 541.661 309.98 538.085 308.3C534.387 306.57 530.853 304.512 527.524 302.149C524.166 299.773 520.987 297.155 518.012 294.315C517.222 293.562 516.445 292.795 515.683 292.014C514.921 291.233 514.174 290.44 513.442 289.633C512.708 288.826 511.99 288.007 511.289 287.175C510.588 286.343 509.901 285.498 509.228 284.641Z" fill="#F2F2F2"/>
<path d="M570.662 228.28C568.3 227.055 566.03 225.662 563.867 224.113C559.548 221.018 555.689 217.327 552.406 213.149C550.778 211.077 549.304 208.888 547.995 206.601C546.902 204.669 545.932 202.67 545.091 200.616C544.27 198.612 543.579 196.557 543.024 194.464C542.481 192.419 542.077 190.34 541.813 188.242C541.555 186.186 541.442 184.114 541.474 182.043C541.477 181.926 541.48 181.81 541.482 181.695C541.485 181.579 541.487 181.463 541.491 181.346C541.494 181.23 541.498 181.114 541.504 181L541.521 180.656C541.422 180.734 541.323 180.813 541.224 180.893L540.929 181.133L540.635 181.375L540.342 181.618L540.153 181.774L539.964 181.931L539.776 182.089L539.591 182.247L539.847 181.946L540.11 181.635C540.197 181.535 540.284 181.436 540.371 181.337C540.458 181.238 540.547 181.14 540.638 181.043L540.85 180.926L541.061 180.811L541.267 180.697L541.476 180.582L541.489 180.578L541.502 180.571L541.516 180.565L541.529 180.56L541.613 180.514L541.697 180.468L541.779 180.421L541.859 180.374L542.224 180.178L542.588 179.986L542.951 179.794L543.315 179.601L543.031 179.46L542.339 179.115L542.344 179.112C542.404 179.138 542.463 179.165 542.521 179.193C542.579 179.221 542.638 179.248 542.697 179.274C542.757 179.302 542.815 179.33 542.873 179.357C542.93 179.385 542.989 179.413 543.048 179.442L543.114 179.47L543.182 179.499L543.251 179.528C543.273 179.537 543.295 179.548 543.316 179.561L543.31 179.67L543.302 179.773L543.296 179.876L543.291 179.979C543.036 183.469 543.217 186.977 543.832 190.421C544.464 193.967 545.502 197.428 546.924 200.737C548.394 204.162 550.231 207.417 552.404 210.446C554.649 213.579 557.221 216.464 560.077 219.052C562.951 221.622 566.087 223.884 569.432 225.801C571.085 226.747 572.786 227.605 574.529 228.372C576.258 229.13 578.026 229.794 579.827 230.361C579.747 230.479 579.666 230.595 579.584 230.71C579.501 230.826 579.418 230.94 579.333 231.053C579.248 231.167 579.162 231.28 579.075 231.392C578.988 231.504 578.9 231.616 578.811 231.727C578.117 231.497 577.426 231.252 576.739 230.993C576.052 230.733 575.368 230.46 574.688 230.172C574.008 229.885 573.333 229.583 572.662 229.267C571.991 228.951 571.324 228.622 570.662 228.28Z" fill="white"/>
<path d="M523.916 254.36C523.143 253.206 522.413 252.031 521.727 250.834C521.04 249.637 520.399 248.424 519.802 247.193C519.206 245.963 518.655 244.717 518.15 243.455C517.644 242.194 517.186 240.922 516.776 239.638C516.567 238.957 516.374 238.274 516.197 237.589C516.02 236.903 515.859 236.216 515.716 235.529C515.572 234.841 515.445 234.152 515.333 233.461C515.222 232.77 515.128 232.08 515.051 231.39C515.012 231.068 514.977 230.746 514.946 230.424C514.915 230.101 514.888 229.779 514.864 229.457C514.84 229.134 514.819 228.812 514.802 228.49C514.786 228.168 514.772 227.847 514.762 227.526C514.916 227.036 515.073 226.548 515.233 226.061C515.392 225.575 515.555 225.09 515.72 224.608C515.885 224.126 516.052 223.645 516.223 223.167C516.393 222.689 516.567 222.213 516.744 221.738C516.705 222.136 516.672 222.535 516.645 222.934C516.618 223.334 516.596 223.734 516.58 224.136C516.564 224.538 516.553 224.941 516.548 225.345C516.544 225.749 516.545 226.154 516.551 226.56C516.55 226.781 516.552 227.002 516.557 227.222C516.561 227.443 516.567 227.664 516.574 227.885C516.582 228.106 516.592 228.327 516.603 228.548C516.615 228.769 516.628 228.991 516.643 229.212C516.813 231.691 517.202 234.151 517.806 236.563C518.417 239.003 519.215 241.393 520.192 243.712C521.188 246.075 522.336 248.371 523.629 250.585C524.945 252.838 526.383 255.018 527.938 257.113C529.611 259.375 531.38 261.577 533.244 263.72C535.108 265.863 537.043 267.947 539.049 269.972C541.056 271.996 543.123 273.957 545.248 275.855C547.373 277.754 549.534 279.586 551.731 281.354C553.98 283.168 556.274 284.913 558.614 286.59C560.955 288.266 563.333 289.869 565.749 291.399C568.164 292.928 570.616 294.382 573.104 295.763C575.592 297.143 578.108 298.444 580.653 299.666C580.769 299.723 580.875 299.801 580.964 299.896C581.051 299.989 581.121 300.096 581.172 300.213C581.222 300.328 581.252 300.451 581.26 300.576C581.268 300.703 581.251 300.829 581.211 300.949C581.198 301.001 581.179 301.052 581.156 301.1C581.134 301.147 581.106 301.191 581.075 301.232C581.044 301.273 581.008 301.311 580.969 301.345C580.93 301.378 580.887 301.407 580.842 301.431C580.795 301.453 580.744 301.469 580.693 301.478C580.641 301.487 580.588 301.49 580.536 301.486C580.482 301.483 580.429 301.473 580.378 301.457C580.325 301.441 580.274 301.419 580.226 301.392C579.911 301.241 579.597 301.09 579.283 300.938C578.969 300.786 578.656 300.633 578.343 300.479C578.03 300.325 577.717 300.17 577.405 300.013C577.093 299.856 576.781 299.697 576.47 299.536C573.876 298.205 571.318 296.793 568.794 295.302C566.27 293.811 563.784 292.242 561.335 290.595C558.888 288.949 556.485 287.229 554.126 285.435C551.767 283.64 549.458 281.775 547.199 279.838C545.016 277.973 542.862 276.045 540.759 274.052C538.656 272.059 536.606 270.001 534.632 267.878C532.658 265.755 530.763 263.568 528.967 261.315C527.172 259.061 525.481 256.744 523.916 254.36Z" fill="white"/>
<path d="M572.769 69.1255L570.911 69.3668L583.366 22.6409C584.284 19.5208 584.433 16.2252 583.801 13.0349C583.253 10.4282 581.898 8.06016 579.928 6.26683C577.864 4.47375 575.335 3.30051 572.633 2.88248C569.341 2.373 565.982 2.52337 562.749 3.32484L478.103 22.5936C475.149 23.3101 472.321 24.473 469.718 26.042C466.886 27.7251 464.253 29.721 461.867 31.992C459.413 34.3078 457.209 36.8759 455.294 39.6538C453.423 42.3426 451.898 45.256 450.755 48.3253L362.19 291.82C360.718 295.824 359.761 299.999 359.343 304.244C358.956 308.013 359.139 311.818 359.886 315.532C360.51 318.76 361.813 321.818 363.709 324.503C365.447 326.945 367.897 328.792 370.724 329.792L460.157 360.568C464.13 361.92 468.394 362.174 472.5 361.302C476.888 360.347 481.016 358.447 484.595 355.735C488.615 352.716 492.071 349.013 494.806 344.797C497.836 340.164 500.099 335.073 501.51 329.721L561.469 104.782L563.35 104.631L572.769 69.1255Z" fill="#2F2E41"/>
<path d="M566.299 66.5386L564.441 66.7798L576.896 20.0539C577.814 16.9338 577.963 13.6382 577.331 10.448C576.783 7.84125 575.428 5.47322 573.458 3.67989C571.394 1.88681 568.865 0.713566 566.163 0.295538C562.871 -0.213942 559.512 -0.0635715 556.279 0.737898L471.633 20.0067C468.679 20.7232 465.851 21.886 463.248 23.4551C460.416 25.1382 457.783 27.134 455.397 29.405C452.943 31.7208 450.739 34.289 448.824 37.0669C446.953 39.7557 445.428 42.669 444.285 45.7383L355.72 289.233C354.248 293.237 353.291 297.412 352.873 301.657C352.486 305.426 352.669 309.231 353.416 312.946C354.04 316.173 355.343 319.231 357.239 321.916C358.977 324.358 361.427 326.205 364.254 327.205L453.687 357.981C457.66 359.333 461.924 359.587 466.03 358.716C470.418 357.76 474.546 355.86 478.125 353.148C482.145 350.129 485.601 346.426 488.336 342.21C491.366 337.577 493.629 332.486 495.04 327.134L554.999 102.195L556.88 102.044L566.299 66.5386Z" fill="#3F3D56"/>
<path d="M555.531 6.83467L543.088 9.55936C543.224 10.6354 543.117 11.7283 542.774 12.7575C542.387 13.9613 541.824 15.1017 541.106 16.1425C539.488 18.5052 537.328 20.4473 534.808 21.8072C534.506 21.9676 534.205 22.1157 533.905 22.2515C533.605 22.3873 533.306 22.5106 533.006 22.6215C532.707 22.7323 532.411 22.8301 532.116 22.9151C531.822 23 531.531 23.0716 531.243 23.1298L482.595 32.9763C481.692 33.1859 480.753 33.1753 479.855 32.9453C479.132 32.7514 478.495 32.3222 478.043 31.7255C477.588 31.0849 477.331 30.3248 477.304 29.5396C477.267 28.5379 477.426 27.5386 477.771 26.5976C477.857 26.3436 477.956 26.0879 478.066 25.8305C478.176 25.5731 478.297 25.3157 478.427 25.0583C478.556 24.7996 478.698 24.5422 478.851 24.2861C479.004 24.03 479.165 23.7741 479.335 23.5185L470.124 25.5356C467.906 26.0557 465.781 26.9152 463.825 28.0838C461.688 29.3423 459.7 30.8393 457.901 32.5462C456.046 34.2901 454.383 36.2266 452.938 38.3229C451.53 40.3485 450.386 42.545 449.532 44.8594L361.134 290.47C360.034 293.488 359.328 296.635 359.034 299.834C358.761 302.657 358.922 305.505 359.51 308.28C360 310.678 361.002 312.943 362.446 314.919C363.769 316.713 365.615 318.053 367.73 318.758L457.821 348.015C460.794 348.967 463.967 349.11 467.013 348.427C470.256 347.684 473.303 346.256 475.948 344.236C478.906 341.998 481.452 339.262 483.474 336.152C485.711 332.736 487.389 328.986 488.447 325.043L570.762 21.4127C571.453 19.0949 571.581 16.646 571.136 14.2689C570.749 12.3209 569.763 10.5422 568.317 9.18102C566.8 7.82015 564.928 6.91824 562.919 6.5805C560.464 6.16846 557.951 6.2549 555.531 6.83467Z" fill="white"/>
<path d="M507.216 123.159H328V62.4528H507.216V123.159Z" fill="white"/>
<path d="M454.821 144.585H279.177V229.692H454.821V144.585Z" fill="white"/>
<path d="M307.711 185.453C314.728 185.453 320.416 179.767 320.416 172.754C320.416 165.74 314.728 160.054 307.711 160.054C300.694 160.054 295.006 165.74 295.006 172.754C295.006 179.767 300.694 185.453 307.711 185.453Z" fill="#F9A826"/>
<path d="M337.054 164.287C336.492 164.287 335.953 164.51 335.556 164.907C335.159 165.304 334.936 165.842 334.936 166.404C334.936 166.965 335.159 167.503 335.556 167.9C335.953 168.297 336.492 168.52 337.054 168.52H436.878C437.439 168.519 437.976 168.295 438.372 167.899C438.768 167.502 438.991 166.964 438.991 166.404C438.991 165.843 438.768 165.306 438.372 164.909C437.976 164.512 437.439 164.288 436.878 164.287H337.054Z" fill="#E6E6E6"/>
<path d="M337.054 176.987C336.775 176.986 336.5 177.04 336.242 177.145C335.985 177.251 335.751 177.406 335.553 177.603C335.356 177.799 335.199 178.032 335.092 178.289C334.985 178.545 334.93 178.821 334.929 179.099C334.928 179.377 334.983 179.653 335.089 179.91C335.195 180.167 335.35 180.401 335.547 180.598C335.743 180.795 335.977 180.951 336.234 181.058C336.491 181.165 336.766 181.22 337.045 181.22H380.009C380.287 181.22 380.562 181.165 380.819 181.059C381.076 180.953 381.309 180.797 381.506 180.6C381.702 180.404 381.858 180.17 381.965 179.913C382.071 179.657 382.126 179.381 382.126 179.103C382.126 178.825 382.071 178.55 381.965 178.293C381.858 178.037 381.702 177.803 381.506 177.607C381.309 177.41 381.076 177.254 380.819 177.148C380.562 177.042 380.287 176.987 380.009 176.987H337.054Z" fill="#E6E6E6"/>
<path d="M297.966 197.29C296.355 197.29 295.045 198.24 295.045 199.407C295.045 200.574 296.355 201.523 297.966 201.523H435.694C437.304 201.523 438.615 200.574 438.615 199.407C438.615 198.24 437.304 197.29 435.694 197.29H297.966Z" fill="#E6E6E6"/>
<path d="M297.966 209.99C296.355 209.99 295.045 210.939 295.045 212.106C295.045 213.273 296.355 214.223 297.966 214.223H403.991C405.601 214.223 406.912 213.273 406.912 212.106C406.912 210.939 405.601 209.99 403.991 209.99H297.966Z" fill="#E6E6E6"/>
<path d="M456.607 231.478H277.391V142.799H456.607V231.478ZM280.963 227.907H453.034V146.37H280.963V227.907Z" fill="#E6E6E6"/>
<path d="M358.32 105.107C365.337 105.107 371.025 99.4211 371.025 92.4072C371.025 85.3934 365.337 79.7075 358.32 79.7075C351.304 79.7075 345.615 85.3934 345.615 92.4072C345.615 99.4211 351.304 105.107 358.32 105.107Z" fill="#F9A826"/>
<path d="M387.663 83.9407C387.101 83.9407 386.563 84.1637 386.166 84.5607C385.768 84.9576 385.545 85.496 385.545 86.0574C385.545 86.6187 385.768 87.1571 386.166 87.554C386.563 87.951 387.101 88.174 387.663 88.174H487.488C488.048 88.1726 488.586 87.949 488.982 87.5522C489.378 87.1554 489.6 86.6178 489.6 86.0574C489.6 85.4969 489.378 84.9593 488.982 84.5625C488.586 84.1657 488.048 83.9421 487.488 83.9407H387.663Z" fill="#E6E6E6"/>
<path d="M387.663 96.6405C387.384 96.6395 387.109 96.6934 386.851 96.7991C386.594 96.9048 386.36 97.0601 386.162 97.2563C385.965 97.4525 385.808 97.6856 385.701 97.9423C385.594 98.1991 385.539 98.4744 385.538 98.7526C385.538 99.0308 385.592 99.3064 385.698 99.5636C385.804 99.8208 385.96 100.055 386.156 100.252C386.353 100.449 386.586 100.605 386.843 100.712C387.1 100.818 387.376 100.873 387.654 100.874H466.203C466.764 100.874 467.303 100.651 467.7 100.254C468.097 99.8568 468.32 99.3185 468.32 98.7571C468.32 98.1957 468.097 97.6574 467.7 97.2604C467.303 96.8635 466.764 96.6405 466.203 96.6405H387.663Z" fill="#E6E6E6"/>
<path d="M507.216 123.159H328V62.4528H507.216V123.159ZM331.572 119.588H503.644V66.0238H331.572V119.588Z" fill="#E6E6E6"/>
<path d="M155.076 354.403H164.11L168.408 319.57L155.074 319.571L155.076 354.403Z" fill="#FFB6B6"/>
<path d="M181.534 362.787L153.14 362.788L153.14 351.823L171.901 351.822C174.456 351.822 176.906 352.836 178.712 354.641C180.519 356.447 181.534 358.896 181.534 361.449L181.534 362.787Z" fill="#2F2E41"/>
<path d="M64.7388 342.699L72.6555 347.05L93.2106 318.597L81.5265 312.176L64.7388 342.699Z" fill="#FFB6B6"/>
<path d="M83.8818 362.788L59.0009 349.115L64.286 339.506L80.7266 348.541C82.9651 349.771 84.623 351.84 85.3357 354.292C86.0483 356.744 85.7573 359.378 84.5266 361.616L83.8818 362.788Z" fill="#2F2E41"/>
<path d="M154.654 335.069C153.849 335.068 153.072 334.775 152.467 334.244C151.863 333.712 151.472 332.979 151.369 332.181L140.07 245.153C140.021 244.768 139.85 244.409 139.584 244.127C139.317 243.844 138.968 243.653 138.587 243.581C138.205 243.509 137.811 243.559 137.459 243.724C137.108 243.889 136.818 244.161 136.63 244.501L89.5435 329.895C89.1549 330.592 88.529 331.127 87.7795 331.402C87.0299 331.677 86.2066 331.674 85.4591 331.393L75.1956 327.484C74.7827 327.327 74.4055 327.089 74.086 326.784C73.7665 326.479 73.5112 326.114 73.3351 325.709C73.1589 325.304 73.0655 324.868 73.0603 324.426C73.0551 323.985 73.1382 323.547 73.3047 323.138L105.923 243.042C106.005 242.839 106.061 242.625 106.09 242.408C110.507 208.227 121.748 190.845 125.088 186.332C125.332 186 125.492 185.615 125.556 185.208C125.62 184.801 125.584 184.385 125.453 183.995L124.994 182.618C124.811 182.072 124.773 181.487 124.885 180.922C124.997 180.356 125.255 179.83 125.632 179.394C137.667 165.692 158.643 173.169 158.853 173.246L158.958 173.285L159.024 173.375C182.544 205.617 173.848 310.341 171.866 331.006C171.792 331.783 171.445 332.508 170.888 333.054C170.33 333.6 169.598 333.931 168.819 333.989L154.911 335.06C154.825 335.066 154.739 335.069 154.654 335.069Z" fill="#2F2E41"/>
<path d="M148.277 93.2512C159.381 93.2512 168.383 84.2534 168.383 73.154C168.383 62.0547 159.381 53.0569 148.277 53.0569C137.173 53.0569 128.172 62.0547 128.172 73.154C128.172 84.2534 137.173 93.2512 148.277 93.2512Z" fill="#FFB8B8"/>
<path d="M117.194 201.037L176.355 206.419C171.197 188.491 166.471 170.627 170.323 152.827C175.215 136.935 175.67 128.132 162.766 120.648L154.054 101.221L138.286 100.647L130.597 98.541C124.386 108.524 121.845 120.358 123.411 132.01C126.753 157.347 125.85 180.86 117.194 201.037Z" fill="#F2F2F2"/>
<path d="M126.174 111.356L120.223 84.0538C118.981 77.5911 119.293 70.926 121.132 64.6072C121.332 63.9597 121.574 63.3255 121.855 62.7087C123.502 59.1203 126.092 56.0455 129.349 53.8117C132.605 51.5779 136.407 50.2687 140.349 50.0235C153.874 49.0897 155.859 50.5149 156.348 51.2178C163.99 50.9093 169.916 53.8606 172.62 59.3222C172.885 59.8643 173.027 60.4578 173.038 61.061C173.049 61.6642 172.927 62.2624 172.681 62.8133C172.435 63.3643 172.071 63.8548 171.616 64.2501C171.16 64.6454 170.623 64.936 170.042 65.1014C166.265 66.1899 160.956 67.3991 156.975 67.0435C148.995 76.6119 152.257 94.1429 160.354 104.588L160.672 104.999L152.65 106.642L143.328 93.6654C143.143 93.4086 142.876 93.2229 142.571 93.1393C142.266 93.0558 141.942 93.0794 141.652 93.2062C141.362 93.3331 141.125 93.5555 140.98 93.8363C140.834 94.1171 140.79 94.4392 140.854 94.7488L143.684 108.493L126.174 111.356Z" fill="#2F2E41"/>
<path d="M561.001 363H0V361.59H561.257L561.001 363Z" fill="#CACACA"/>
<path d="M241.093 184.871L94.7667 288.304L59.7019 238.739L206.028 135.306L241.093 184.871Z" fill="white"/>
<path d="M109.095 256.066C114.825 252.016 116.185 244.091 112.133 238.364C108.082 232.638 100.153 231.278 94.4243 235.328C88.6953 239.377 87.3353 247.303 91.3866 253.029C95.4379 258.756 103.366 260.116 109.095 256.066Z" fill="#F9A826"/>
<path d="M120.827 221.849C120.369 222.174 120.058 222.666 119.963 223.22C119.868 223.773 119.997 224.341 120.321 224.8C120.645 225.258 121.138 225.569 121.692 225.664C122.245 225.759 122.814 225.63 123.272 225.306L204.777 167.693C205.234 167.368 205.543 166.875 205.637 166.323C205.731 165.77 205.603 165.203 205.279 164.746C204.955 164.288 204.463 163.977 203.911 163.882C203.358 163.786 202.79 163.914 202.332 164.236L120.827 221.849Z" fill="#E6E6E6"/>
<path d="M128.163 232.218C127.704 232.542 127.393 233.034 127.297 233.587C127.201 234.139 127.329 234.708 127.652 235.166C127.975 235.625 128.467 235.937 129.02 236.033C129.573 236.129 130.141 236.002 130.601 235.68L130.608 235.675L194.734 190.346C195.192 190.022 195.503 189.529 195.598 188.976C195.693 188.423 195.564 187.854 195.24 187.396C195.08 187.169 194.876 186.976 194.641 186.828C194.405 186.679 194.143 186.579 193.869 186.532C193.316 186.437 192.747 186.566 192.289 186.89L128.163 232.218Z" fill="#E6E6E6"/>
<path d="M241.093 184.871L94.7667 288.304L59.7019 238.739L206.028 135.306L241.093 184.871ZM95.6209 283.327L236.113 184.017L205.174 140.283L64.6813 239.593L95.6209 283.327Z" fill="#E6E6E6"/>
<path d="M575.212 166.507C575.731 166.487 576.249 166.575 576.732 166.766C577.19 166.949 577.606 167.226 577.953 167.577C578.301 167.931 578.572 168.353 578.751 168.816C578.939 169.307 579.025 169.831 579.003 170.356C578.982 170.895 578.857 171.425 578.634 171.916C578.416 172.398 578.113 172.836 577.738 173.21C577.367 173.581 576.93 173.882 576.451 174.097C575.964 174.316 575.439 174.436 574.905 174.45C574.386 174.466 573.869 174.373 573.387 174.178C572.931 173.992 572.518 173.713 572.174 173.36C571.829 173.005 571.561 172.583 571.385 172.121C571.2 171.632 571.116 171.11 571.139 170.587C571.16 170.051 571.286 169.524 571.507 169.035C571.724 168.558 572.024 168.124 572.395 167.753C572.764 167.383 573.197 167.082 573.673 166.865C574.158 166.646 574.681 166.524 575.212 166.507Z" fill="#F2F2F2"/>
<path d="M163.824 216.927L154.309 164.931L154.979 132.776L133.533 132.106L137.554 168.281L151.421 218.444C150.27 219.842 149.564 221.553 149.396 223.356C149.227 225.159 149.603 226.971 150.475 228.558C151.346 230.146 152.674 231.436 154.286 232.261C155.899 233.087 157.721 233.411 159.52 233.191C161.318 232.971 163.009 232.218 164.374 231.028C165.74 229.838 166.717 228.267 167.181 226.516C167.644 224.765 167.572 222.916 166.973 221.207C166.375 219.498 165.278 218.007 163.824 216.927H163.824Z" fill="#FFB8B8"/>
<path d="M132.193 135.455C139.963 132.497 148.549 132.497 156.319 135.455L154.979 108.659C154.979 107.252 154.701 105.858 154.163 104.557C153.624 103.257 152.834 102.075 151.838 101.08C150.842 100.085 149.66 99.2951 148.359 98.7565C147.058 98.2178 145.664 97.9406 144.256 97.9406C142.848 97.9406 141.453 98.2178 140.152 98.7565C138.851 99.2951 137.669 100.085 136.674 101.08C135.678 102.075 134.888 103.257 134.349 104.557C133.81 105.858 133.533 107.252 133.533 108.659L132.193 135.455Z" fill="#F2F2F2"/>
</g>
<defs>
<clipPath id="clip0_1_92">
<rect width="586" height="363" fill="white"/>
</clipPath>
</defs>
</svg>
