<svg width="16" height="16" viewBox="0 0 16 16" fill="none" xmlns="http://www.w3.org/2000/svg">
<path d="M10 8L7 6V10L10 8Z" stroke="#3A3934" stroke-linecap="round" stroke-linejoin="round"/>
<path d="M1.5 8C1.5 9.8625 1.69375 10.95 1.8375 11.5125C1.87714 11.6651 1.95209 11.8063 2.05631 11.9246C2.16053 12.043 2.29111 12.1352 2.4375 12.1938C4.53125 12.9938 8 12.975 8 12.975C8 12.975 11.4688 12.9938 13.5625 12.1938C13.7089 12.1352 13.8395 12.043 13.9437 11.9246C14.0479 11.8063 14.1229 11.6651 14.1625 11.5125C14.3063 10.95 14.5 9.8625 14.5 8C14.5 6.1375 14.3063 5.05 14.1625 4.4875C14.1229 4.33488 14.0479 4.1937 13.9437 4.07537C13.8395 3.95703 13.7089 3.86485 13.5625 3.80625C11.4688 3.00625 8 3.025 8 3.025C8 3.025 4.53125 3.00625 2.4375 3.80625C2.29111 3.86485 2.16053 3.95703 2.05631 4.07537C1.95209 4.1937 1.87714 4.33488 1.8375 4.4875C1.69375 5.05 1.5 6.1375 1.5 8Z" stroke="#3A3934" stroke-linecap="round" stroke-linejoin="round"/>
</svg>
